<?xml version="1.0" standalone="no"?>
<!DOCTYPE svg PUBLIC "-//W3C//DTD SVG 20010904//EN"
 "http://www.w3.org/TR/2001/REC-SVG-20010904/DTD/svg10.dtd">
<svg version="1.0" xmlns="http://www.w3.org/2000/svg"
 width="512.000000pt" height="512.000000pt" viewBox="0 0 512.000000 512.000000"
 preserveAspectRatio="xMidYMid meet">

<g transform="translate(0.000000,512.000000) scale(0.100000,-0.100000)"
fill="#000000" stroke="none">
<path d="M916 5105 c-81 -21 -164 -67 -249 -140 -84 -72 -426 -419 -479 -485
-282 -352 -226 -946 164 -1725 323 -643 844 -1288 1433 -1771 522 -428 1192
-792 1695 -919 244 -62 519 -79 670 -41 93 23 238 90 306 142 77 58 528 525
567 586 77 121 103 255 73 382 -34 143 -45 156 -480 592 -440 439 -453 450
-598 480 -115 24 -233 3 -345 -62 -26 -16 -150 -129 -275 -252 l-227 -225 -83
43 c-331 172 -704 486 -1029 867 -152 178 -332 446 -374 557 l-17 45 157 153
c271 262 344 357 379 493 43 163 -2 311 -145 473 -127 144 -690 695 -752 736
-31 20 -83 46 -115 57 -75 27 -199 33 -276 14z m215 -271 c43 -22 125 -98 415
-388 395 -395 409 -413 408 -516 0 -91 -24 -123 -285 -384 -132 -131 -247
-252 -256 -269 -19 -38 -18 -119 2 -178 23 -65 138 -280 197 -368 224 -334
616 -746 945 -992 142 -106 306 -210 442 -280 109 -56 130 -64 180 -63 34 0
70 7 91 18 19 10 143 126 275 257 261 259 288 278 385 279 43 0 66 -7 105 -29
67 -39 764 -741 791 -796 12 -26 19 -62 19 -100 0 -102 -21 -131 -305 -416
-281 -282 -307 -301 -457 -335 -145 -32 -388 -6 -634 67 -374 111 -884 380
-1294 682 -802 593 -1485 1487 -1770 2319 -136 395 -151 678 -47 888 32 67 62
101 270 312 128 130 251 248 272 263 87 61 166 69 251 29z"/>
</g>
</svg>
