<?xml version="1.0" standalone="no"?>
<!DOCTYPE svg PUBLIC "-//W3C//DTD SVG 20010904//EN"
 "http://www.w3.org/TR/2001/REC-SVG-20010904/DTD/svg10.dtd">
<svg version="1.0" xmlns="http://www.w3.org/2000/svg"
 width="512.000000pt" height="512.000000pt" viewBox="0 0 512.000000 512.000000"
 preserveAspectRatio="xMidYMid meet">

<g transform="translate(0.000000,512.000000) scale(0.100000,-0.100000)"
fill="#000000" stroke="none">
<path d="M2400 4439 c-470 -58 -885 -369 -1073 -802 -122 -282 -140 -603 -51
-900 127 -424 434 -968 887 -1572 99 -131 390 -495 397 -495 3 0 32 33 65 73
698 854 1124 1571 1247 2097 28 122 35 357 14 477 -47 272 -170 515 -360 712
-203 209 -435 337 -720 396 -97 19 -305 27 -406 14z m361 -194 c291 -51 558
-220 738 -468 176 -241 249 -572 190 -860 -87 -432 -430 -1047 -983 -1761 -72
-93 -134 -174 -138 -180 -5 -7 -12 -5 -20 6 -732 934 -1115 1638 -1135 2089
-26 564 381 1073 940 1174 99 18 306 18 408 0z"/>
<path d="M2488 3610 c-258 -45 -437 -253 -438 -505 0 -195 109 -369 284 -455
158 -78 294 -78 452 0 175 86 284 260 284 455 -1 267 -203 484 -475 508 -33 3
-81 2 -107 -3z m210 -220 c118 -59 177 -154 177 -285 0 -68 -4 -89 -28 -137
-118 -241 -456 -241 -574 0 -24 48 -28 69 -28 137 0 131 59 226 177 285 52 26
72 30 138 30 66 0 86 -4 138 -30z"/>
</g>
</svg>
